<?xml version="1.0" standalone="no"?>
<!DOCTYPE svg PUBLIC "-//W3C//DTD SVG 20010904//EN"
 "http://www.w3.org/TR/2001/REC-SVG-20010904/DTD/svg10.dtd">
<svg version="1.0" xmlns="http://www.w3.org/2000/svg"
 width="1024.000000pt" height="1024.000000pt" viewBox="0 0 1024.000000 1024.000000"
 preserveAspectRatio="xMidYMid meet">

<g transform="translate(0.000000,1024.000000) scale(0.100000,-0.100000)"
fill="#000000" stroke="none">
<path d="M4345 7466 c-27 -13 -58 -32 -67 -43 -14 -15 -32 -20 -80 -21 -163
-3 -287 -100 -379 -296 -60 -128 -79 -234 -79 -440 0 -156 -1 -168 -17 -161
-226 91 -451 53 -592 -101 -224 -245 -173 -680 109 -924 51 -44 198 -141 231
-152 5 -2 1 -28 -11 -62 -61 -177 -40 -305 67 -408 114 -110 292 -98 448 31
44 37 104 104 124 140 7 11 28 9 122 -12 63 -14 173 -33 245 -42 l131 -18 6
-106 c9 -180 65 -280 188 -336 53 -24 71 -27 128 -23 86 6 141 35 218 114 68
71 147 213 179 321 20 67 12 63 125 78 l45 7 12 -66 c33 -175 124 -270 259
-269 81 1 138 29 203 100 76 83 180 310 180 393 0 10 21 26 52 41 84 39 210
118 251 157 123 119 188 337 212 717 15 220 -29 562 -96 750 -67 191 -163 285
-389 382 -357 154 -815 233 -1341 233 -225 0 -249 2 -284 20 -55 28 -136 26
-200 -4z m174 -144 c37 -28 58 -60 90 -139 60 -147 107 -361 118 -542 l6 -104
-29 9 c-16 5 -61 9 -101 9 -81 0 -106 -13 -160 -83 -40 -53 -53 -115 -53 -262
0 -66 -3 -120 -6 -120 -13 0 -111 60 -127 78 -44 48 -70 569 -38 777 18 120
64 262 104 321 55 82 132 104 196 56z m566 -22 c335 -23 663 -83 905 -168 231
-82 352 -160 403 -265 34 -71 72 -215 94 -364 24 -162 23 -504 -1 -662 -32
-210 -77 -315 -163 -381 -45 -35 -152 -100 -164 -100 -4 0 -14 33 -23 74 -32
140 -98 203 -245 234 -66 13 -91 14 -145 5 -120 -20 -219 -89 -248 -171 -17
-51 -15 -163 6 -246 10 -38 14 -72 9 -76 -8 -7 -114 -30 -138 -30 -8 0 -12 30
-12 93 -1 155 -37 262 -114 338 -52 51 -105 77 -193 96 -170 36 -338 -22 -406
-139 -46 -82 -57 -168 -37 -296 10 -59 17 -110 17 -114 0 -25 -270 9 -450 56
-112 29 -268 84 -276 97 -3 5 3 12 13 15 180 61 293 188 323 364 14 85 7 134
-25 166 -56 56 -105 19 -116 -87 -11 -99 -34 -160 -78 -211 -156 -177 -507
-124 -723 110 -92 100 -157 260 -158 389 0 102 43 218 109 286 44 47 89 71
159 86 133 28 278 -27 562 -214 420 -277 554 -331 688 -277 97 40 146 118 183
292 31 142 33 490 5 644 -20 110 -72 301 -105 386 -11 30 -21 61 -21 68 0 15
149 16 365 2z m-935 -63 c0 -1 -13 -41 -29 -87 -39 -113 -60 -244 -68 -418
l-6 -143 -33 -14 c-39 -16 -63 -58 -71 -126 -6 -50 -13 -58 -31 -36 -33 40
-43 320 -17 473 26 151 105 287 194 334 32 17 61 25 61 17z m1808 -1780 c93
-99 57 -378 -70 -540 -33 -42 -94 -77 -132 -77 -34 0 -82 44 -97 88 -21 63
-14 192 16 285 64 200 208 324 283 244z m-817 -14 c17 -11 41 -40 56 -71 24
-50 25 -59 20 -155 -20 -364 -251 -671 -399 -530 -57 54 -78 153 -59 283 43
308 243 555 382 473z"/>
<path d="M3414 6279 c-187 -24 -239 -208 -79 -280 57 -26 177 -25 249 1 113
43 151 139 86 214 -49 56 -144 80 -256 65z m146 -109 c12 -6 20 -21 20 -35 0
-38 -48 -58 -127 -53 -103 7 -123 49 -42 91 36 19 110 18 149 -3z"/>
<path d="M5826 5316 c-66 -67 -106 -239 -73 -318 15 -36 28 -44 67 -38 50 6
117 129 127 233 7 76 0 110 -27 137 -29 29 -55 25 -94 -14z m54 -138 c0 -51
-28 -112 -52 -116 -15 -3 -18 4 -18 43 0 62 23 115 49 115 18 0 21 -6 21 -42z"/>
<path d="M5025 5271 c-41 -25 -58 -46 -93 -116 -39 -76 -54 -140 -55 -233 0
-58 4 -78 20 -100 58 -78 158 -3 220 164 36 97 38 224 5 272 -27 37 -53 41
-97 13z m33 -179 c6 -82 -43 -184 -81 -169 -34 13 -11 148 34 196 29 30 43 22
47 -27z"/>
<path d="M2427 6363 c-4 -3 -7 -629 -7 -1390 l0 -1383 318 -1 c1098 -1 5096 2
5099 5 2 1 -33 77 -78 167 -45 90 -96 196 -114 234 -18 39 -77 160 -130 270
-53 110 -113 234 -132 275 -19 41 -76 159 -125 263 l-91 187 34 73 c18 39 98
205 177 367 79 162 161 331 182 375 21 44 88 183 149 309 61 126 111 235 111
242 0 12 -89 14 -530 14 l-531 0 3 -107 3 -108 357 -3 357 -2 -8 -23 c-11 -28
-90 -193 -245 -512 -67 -137 -162 -334 -211 -437 l-90 -188 -362 0 -362 0 -39
-82 c-70 -149 -163 -249 -277 -298 -72 -31 -208 -25 -281 13 -67 34 -139 116
-166 190 -11 31 -22 57 -24 57 -2 0 -24 -42 -48 -92 -100 -210 -242 -341 -397
-369 -164 -29 -347 66 -414 214 -24 52 -55 184 -55 231 0 30 2 29 -160 51 -63
9 -131 19 -151 22 -34 5 -40 1 -74 -36 -49 -54 -148 -128 -205 -154 -61 -28
-153 -44 -223 -40 -141 8 -282 108 -327 231 l-23 62 -343 0 -344 0 0 580 0
580 125 0 c100 0 125 3 125 14 0 14 42 158 55 189 7 16 -9 17 -257 17 -146 0
-268 -3 -271 -7z m1242 -1998 c20 -10 31 -25 35 -50 l7 -35 39 20 c52 26 119
26 153 0 l26 -21 40 21 c79 40 161 20 176 -42 3 -13 4 -144 3 -293 l-3 -270
-70 0 -70 0 -3 267 c-2 258 -3 267 -23 273 -46 15 -49 0 -49 -275 0 -226 -2
-259 -16 -264 -29 -11 -111 -6 -123 7 -7 9 -12 102 -13 273 -3 240 -4 259 -21
262 -45 9 -47 -5 -47 -278 l0 -258 -55 -7 c-103 -12 -95 -37 -95 306 l0 299
-25 0 c-31 0 -32 10 -2 37 50 45 88 53 136 28z m-904 -20 c24 -13 46 -32 49
-41 5 -14 1 -16 -24 -11 l-30 7 0 -256 c0 -201 3 -255 13 -251 117 45 149 46
187 5 15 -17 20 -33 18 -63 -3 -39 -4 -40 -43 -43 -60 -5 -103 6 -110 28 -8
25 -35 25 -85 0 -22 -11 -57 -20 -80 -20 l-40 0 0 313 c0 267 2 316 16 335 21
30 75 29 129 -3z m2215 -110 l0 -64 63 -3 c54 -3 62 -5 62 -23 0 -18 -8 -20
-62 -23 l-63 -3 -2 -212 -3 -212 -50 0 -50 0 -3 303 -2 302 55 0 55 0 0 -65z
m1080 -234 c0 -329 4 -311 -64 -311 -18 0 -37 5 -43 11 -8 8 -17 8 -33 -1 -31
-16 -106 -7 -132 16 -76 68 -75 239 2 294 31 22 108 27 141 10 18 -10 19 -6
19 135 l0 145 55 0 55 0 0 -299z m-376 183 c23 -22 20 -61 -5 -74 -54 -30
-106 34 -59 72 27 22 44 23 64 2z m-2441 -155 l67 2 0 -164 c0 -187 3 -182
-86 -166 -32 6 -51 5 -61 -2 -8 -7 -32 -9 -59 -6 -78 8 -124 72 -124 171 0
118 64 185 160 169 19 -3 65 -5 103 -4z m1172 -8 c78 -35 115 -105 101 -193
-9 -56 -20 -74 -68 -108 -54 -39 -137 -42 -189 -7 -98 66 -108 199 -22 280 51
48 113 58 178 28z m239 4 c12 -13 20 -14 37 -5 33 18 107 16 127 -4 14 -14 17
-39 17 -169 l0 -152 -50 0 -50 0 -5 133 c-5 140 -13 162 -52 141 -16 -9 -18
-25 -18 -138 0 -138 -1 -141 -55 -141 -55 0 -55 -1 -55 175 0 121 3 165 13
168 26 11 76 6 91 -8z m900 9 c25 -10 22 -138 -5 -210 -29 -77 -81 -134 -123
-134 -17 0 -37 4 -44 8 -11 7 -91 286 -92 320 0 8 17 12 53 12 l53 0 33 -115
c18 -63 37 -118 42 -120 4 -3 16 9 25 26 20 40 31 144 15 153 -15 9 -14 39 1
54 14 14 20 14 42 6z m757 -15 c14 -5 33 -23 42 -38 l17 -29 -75 -70 c-41 -39
-75 -75 -75 -81 0 -15 54 -41 84 -41 14 0 37 5 51 10 15 6 31 7 36 4 17 -10
-19 -40 -74 -64 -123 -53 -228 14 -230 148 -1 136 101 209 224 161z m565 6 c5
-11 11 -12 24 -5 10 6 41 10 68 10 81 0 87 -13 87 -189 l0 -146 -29 -3 c-15
-2 -39 -1 -52 2 -24 6 -24 8 -24 130 0 100 -3 128 -16 140 -21 21 -30 20 -48
-6 -12 -17 -16 -50 -16 -141 l0 -118 -52 3 -53 3 -2 152 c-2 125 1 155 13 168
20 20 93 20 100 0z m459 1 l70 -1 3 -159 c2 -121 -1 -161 -10 -168 -20 -12
-96 -10 -100 3 -3 9 -9 9 -25 0 -12 -6 -42 -11 -67 -11 -87 0 -131 67 -124
190 3 54 9 74 31 103 31 40 76 59 122 49 17 -3 62 -6 100 -6z m-2084 -25 c16
-16 29 -36 29 -44 0 -9 -32 -44 -72 -80 -51 -46 -69 -69 -65 -81 10 -26 57
-38 117 -31 l55 7 -20 -22 c-28 -32 -93 -60 -139 -60 -48 0 -107 32 -132 73
-29 49 -26 152 5 195 36 50 77 72 139 72 46 0 58 -4 83 -29z m459 -135 c0
-177 0 -176 -55 -176 -55 0 -55 -1 -55 176 l0 164 55 0 55 0 0 -164z m1020 -1
c0 -179 1 -175 -64 -175 -18 0 -37 5 -43 11 -8 8 -17 8 -31 0 -38 -20 -98 -13
-133 16 -40 34 -59 79 -59 143 0 62 22 118 57 147 25 20 38 22 150 22 l123 0
0 -164z"/>
<path d="M5865 3940 c-13 -15 -19 -36 -19 -72 0 -43 4 -54 27 -74 27 -23 46
-23 75 -1 18 14 16 132 -4 151 -21 22 -57 20 -79 -4z"/>
<path d="M3105 3930 c-41 -80 9 -171 79 -144 13 5 16 22 16 78 0 79 -9 96 -52
96 -20 0 -31 -8 -43 -30z"/>
<path d="M4331 3939 c-29 -31 -35 -71 -17 -113 18 -43 53 -60 93 -45 37 14 52
38 53 82 0 75 -84 124 -129 76z"/>
<path d="M6222 3961 c-16 -10 -29 -91 -15 -91 19 0 76 69 70 84 -7 17 -34 21
-55 7z"/>
<path d="M7206 3935 c-23 -34 -21 -117 2 -138 22 -20 63 -22 80 -5 18 18 15
133 -4 152 -23 24 -59 20 -78 -9z"/>
<path d="M5150 3963 c-8 -3 -18 -11 -22 -17 -10 -14 -10 -76 0 -76 4 0 22 16
41 35 29 29 32 37 21 50 -13 16 -17 17 -40 8z"/>
<path d="M6531 3934 c-53 -67 -3 -179 67 -153 20 8 22 15 22 88 0 63 -3 80
-16 85 -31 12 -53 6 -73 -20z"/>
</g>
</svg>
