<?xml version="1.0" standalone="no"?>
<!DOCTYPE svg PUBLIC "-//W3C//DTD SVG 20010904//EN"
 "http://www.w3.org/TR/2001/REC-SVG-20010904/DTD/svg10.dtd">
<svg version="1.0" xmlns="http://www.w3.org/2000/svg"
 width="756.000000pt" height="1344.000000pt" viewBox="0 0 756.000000 1344.000000"
 preserveAspectRatio="xMidYMid meet">

<g transform="translate(0.000000,1344.000000) scale(0.100000,-0.100000)"
fill="#000000" stroke="none">
<path d="M3189 9161 c-38 -13 -71 -31 -99 -56 -19 -17 -42 -24 -94 -28 -141
-13 -258 -99 -335 -247 -68 -130 -83 -199 -88 -413 -5 -169 -7 -188 -22 -182
-54 22 -174 45 -230 45 -186 0 -329 -89 -406 -253 -87 -183 -64 -420 59 -605
61 -92 154 -177 261 -236 47 -27 85 -49 85 -50 0 -1 -9 -27 -20 -59 -29 -83
-28 -205 4 -272 27 -58 74 -108 131 -138 31 -17 58 -22 120 -22 70 0 88 4 145
32 66 33 142 97 196 167 l30 38 85 -20 c71 -18 153 -32 335 -58 l31 -4 6 -82
c10 -124 40 -202 101 -264 147 -146 343 -96 487 123 40 62 58 101 108 238 6
15 23 22 74 30 l67 11 5 -36 c18 -116 55 -186 124 -235 39 -27 50 -30 120 -30
73 0 81 2 133 37 89 59 163 181 211 348 l24 85 87 46 c118 64 185 117 228 180
144 210 179 813 72 1209 -63 233 -134 326 -317 415 -332 162 -843 258 -1353
254 -159 -1 -196 1 -222 15 -39 20 -108 28 -143 17z m111 -146 c86 -45 183
-354 206 -661 7 -83 6 -87 -12 -80 -126 52 -217 17 -277 -103 -31 -64 -32 -68
-31 -197 l0 -131 -50 29 c-78 45 -84 54 -103 158 -26 139 -26 550 0 668 60
272 149 378 267 317z m835 -59 c279 -42 512 -107 692 -191 151 -71 203 -132
256 -300 46 -147 62 -285 61 -545 -1 -343 -39 -531 -123 -618 -36 -37 -177
-129 -185 -121 -2 2 -11 33 -20 69 -30 118 -87 178 -197 206 -110 28 -221 9
-312 -53 -89 -62 -108 -156 -71 -355 6 -34 4 -38 -18 -47 -14 -5 -45 -12 -69
-16 l-44 -6 -1 88 c-1 105 -21 182 -66 249 -90 131 -275 125 -414 -14 -78 -79
-148 -192 -184 -297 l-17 -50 -84 3 c-169 5 -419 59 -548 117 l-56 26 73 35
c149 72 242 220 242 385 0 73 -45 122 -95 103 -24 -10 -45 -58 -45 -107 0
-112 -65 -215 -162 -257 -64 -28 -197 -38 -281 -20 -171 35 -368 200 -427 356
-84 225 -24 437 148 521 49 24 68 28 137 27 125 -2 240 -52 455 -196 292 -197
459 -278 569 -278 199 1 285 177 285 585 0 247 -43 483 -119 665 -14 33 -25
62 -25 66 0 4 107 4 238 1 182 -4 276 -11 407 -31z m-1196 -83 c-33 -98 -59
-247 -69 -398 -9 -151 -12 -165 -35 -165 -22 0 -55 -50 -72 -112 -27 -96 -38
-78 -53 86 -29 307 60 575 210 635 39 15 40 14 19 -46z m1716 -1607 c72 -72
54 -301 -35 -448 -85 -141 -180 -162 -238 -53 -12 22 -16 55 -16 120 1 142 57
279 148 363 55 51 102 57 141 18z m-738 -28 c50 -47 67 -182 39 -315 -32 -149
-86 -262 -165 -343 -88 -91 -177 -87 -231 10 -22 40 -25 56 -24 150 0 92 5
117 34 204 84 247 248 387 347 294z"/>
<path d="M4035 8580 c-48 -19 -50 -28 -56 -314 -4 -149 -3 -281 2 -293 11 -29
37 -29 89 -3 50 26 59 25 100 -5 37 -28 77 -32 104 -12 38 28 -6 107 -60 107
-11 0 -43 -11 -70 -25 -27 -14 -50 -25 -51 -25 -5 0 0 357 6 430 5 67 8 75 29
80 l23 5 -28 26 c-33 32 -60 41 -88 29z"/>
<path d="M4350 8403 c-30 -11 -70 -45 -65 -54 4 -5 15 -9 26 -9 18 0 19 -9 19
-270 l0 -270 54 0 54 0 4 229 c4 239 8 261 49 261 9 0 25 -7 33 -16 14 -13 15
-44 9 -245 l-6 -229 56 0 57 0 0 221 c0 123 4 228 10 238 13 25 37 33 61 21
18 -10 19 -24 19 -251 l0 -240 53 3 52 3 3 261 c2 254 2 261 -19 280 -28 25
-87 23 -132 -5 l-35 -22 -26 26 c-31 31 -72 33 -126 5 -22 -11 -41 -20 -44
-20 -2 0 -7 13 -11 30 -10 46 -52 69 -95 53z"/>
<path d="M2251 8029 c-101 -20 -170 -92 -157 -163 24 -127 292 -160 402 -49
29 28 34 41 34 79 0 39 -5 51 -33 79 -54 54 -145 74 -246 54z m151 -106 c45
-41 -8 -83 -106 -83 -89 0 -122 50 -57 85 37 20 140 19 163 -2z"/>
<path d="M4533 7148 c-35 -38 -62 -103 -74 -175 -33 -198 91 -233 161 -46 47
125 31 234 -35 241 -22 2 -37 -4 -52 -20z m45 -154 c-6 -65 -33 -104 -56 -80
-27 27 21 158 50 139 6 -3 8 -30 6 -59z"/>
<path d="M3790 7092 c-62 -31 -120 -141 -141 -271 -18 -108 11 -181 71 -181
39 0 81 38 117 107 79 150 92 304 30 348 -27 19 -34 19 -77 -3z m24 -188 c-2
-111 -74 -198 -82 -99 -4 49 11 104 39 139 31 40 44 28 43 -40z"/>
<path d="M5332 9134 c-12 -8 -22 -26 -22 -38 0 -15 -13 -33 -35 -50 -19 -15
-35 -33 -35 -40 0 -19 34 -46 58 -46 14 0 27 -11 36 -29 14 -26 34 -41 56 -41
17 0 40 32 40 54 0 13 12 31 30 44 50 37 33 92 -28 92 -10 0 -24 11 -30 24
-16 37 -44 48 -70 30z m50 -51 c9 -18 23 -30 42 -33 39 -7 44 -27 12 -42 -15
-6 -29 -23 -32 -37 -13 -62 -25 -67 -44 -21 -8 19 -22 32 -39 36 -61 13 -63
21 -9 48 12 6 24 20 26 31 9 53 24 60 44 18z"/>
<path d="M5625 9057 c9 -47 -8 -97 -51 -148 -19 -22 -34 -45 -34 -49 0 -5 -12
-23 -27 -41 -16 -18 -22 -30 -15 -25 7 4 12 1 12 -8 0 -9 -6 -16 -12 -16 -16
-1 -60 -68 -55 -84 2 -6 -2 -15 -9 -21 -11 -8 -7 -34 21 -140 19 -71 38 -158
41 -192 l7 -63 47 0 47 0 -8 43 c-13 70 -66 242 -88 286 -24 46 -17 55 33 46
32 -6 34 -5 41 24 3 17 10 33 14 36 15 9 -1 55 -18 53 -9 -2 -16 4 -16 12 0 8
6 14 13 13 6 -2 12 4 12 12 0 8 -4 15 -8 15 -11 0 -12 32 -2 45 4 6 6 18 4 28
-2 18 -2 18 17 1 10 -9 19 -23 19 -31 0 -7 7 -13 15 -13 8 0 16 -4 16 -10 1
-5 3 -14 4 -20 1 -5 3 -17 4 -25 1 -12 6 -12 26 -3 26 12 65 97 65 143 0 52
-32 104 -93 147 l-28 20 6 -35z m-67 -335 c6 -18 -15 -14 -22 4 -4 10 -1 14 6
12 6 -2 14 -10 16 -16z"/>
<path d="M1940 8924 c-6 -14 -10 -32 -10 -39 0 -8 -13 -22 -30 -32 -19 -11
-30 -25 -30 -40 0 -23 34 -53 61 -53 9 0 24 -11 33 -25 26 -40 52 -49 76 -25
11 11 20 30 20 43 0 14 12 32 30 45 47 35 38 72 -21 87 -15 4 -36 20 -48 36
-28 38 -67 40 -81 3z m65 -34 c11 -20 23 -30 39 -30 13 0 29 -6 35 -14 10 -12
7 -18 -18 -30 -24 -13 -30 -23 -33 -53 -4 -49 -25 -53 -43 -10 -12 29 -21 36
-47 39 -39 4 -44 28 -10 43 13 6 25 21 28 35 13 61 25 66 49 20z"/>
<path d="M2248 8849 c3 -39 -1 -69 -12 -90 -9 -18 -16 -40 -16 -51 0 -10 -5
-18 -11 -18 -5 0 -7 5 -4 10 3 6 3 10 -2 10 -4 0 -19 -21 -33 -47 -15 -29 -41
-57 -67 -74 -32 -20 -39 -28 -28 -33 13 -5 14 -10 4 -27 -8 -15 -8 -19 0 -15
6 4 11 0 11 -10 0 -13 6 -15 33 -10 17 4 58 12 91 17 32 5 64 15 70 22 11 11
37 68 43 92 1 6 5 21 9 34 5 18 4 23 -7 19 -8 -3 -20 1 -27 9 -11 11 -11 16 2
29 12 12 16 12 16 2 0 -10 3 -9 10 2 9 13 11 13 20 0 7 -11 9 -5 6 22 -8 62
-50 128 -101 160 -6 4 -9 -17 -7 -53z"/>
<path d="M5435 8760 c3 -5 8 -10 11 -10 2 0 4 5 4 10 0 6 -5 10 -11 10 -5 0
-7 -4 -4 -10z"/>
<path d="M5730 8657 c-36 -18 -48 -59 -27 -91 37 -57 117 -37 117 29 0 24 -7
39 -26 54 -31 24 -31 25 -64 8z m46 -25 c17 -11 22 -35 12 -54 -10 -21 -39
-23 -56 -6 -32 32 7 85 44 60z"/>
<path d="M5958 8610 c3 -36 -2 -62 -17 -93 -12 -25 -19 -51 -16 -59 3 -8 -1
-21 -10 -28 -8 -7 -15 -8 -15 -3 0 5 -7 10 -15 10 -11 0 -12 -3 -3 -14 9 -11
8 -13 -3 -11 -8 2 -13 -3 -11 -10 1 -8 -2 -11 -8 -7 -6 3 -7 11 -4 17 4 7 -1
7 -17 2 -13 -5 -52 -9 -85 -9 l-62 0 14 -25 c21 -38 35 -52 81 -83 82 -53 187
-19 258 83 30 43 36 112 15 175 -10 30 -79 105 -98 105 -4 0 -5 -22 -4 -50z"/>
<path d="M1879 8605 c15 -33 45 -55 60 -46 10 7 8 11 -10 16 -12 4 -31 17 -42
29 -17 20 -18 20 -8 1z"/>
<path d="M1520 8554 c-6 -14 -10 -28 -10 -31 0 -4 -14 -18 -31 -33 -28 -23
-30 -29 -20 -48 7 -12 25 -24 46 -28 20 -3 35 -12 35 -20 0 -8 12 -20 26 -26
23 -11 29 -10 45 11 11 13 19 30 19 38 0 7 12 25 28 38 22 20 25 27 16 42 -6
10 -21 19 -33 21 -12 2 -31 17 -43 33 -28 37 -65 39 -78 3z m58 -29 c8 -17 20
-25 36 -25 35 0 40 -15 11 -34 -17 -11 -25 -26 -25 -46 0 -37 -26 -41 -42 -6
-6 15 -21 26 -36 28 -35 4 -39 25 -8 39 16 8 26 20 26 34 0 41 21 47 38 10z"/>
<path d="M2003 8553 c9 -2 25 -2 35 0 9 3 1 5 -18 5 -19 0 -27 -2 -17 -5z"/>
<path d="M1810 8490 c0 -22 -7 -57 -15 -77 -9 -20 -13 -34 -9 -31 3 4 18 -7
32 -22 l27 -29 39 33 c36 31 39 37 29 58 -14 32 -61 86 -84 99 -17 9 -19 6
-19 -31z m41 -133 c-1 -12 -15 -9 -19 4 -3 6 1 10 8 8 6 -3 11 -8 11 -12z"/>
<path d="M1722 8299 l-24 -29 45 0 c31 0 49 6 62 20 10 11 15 21 12 21 -4 1
-11 2 -16 3 -5 0 -13 4 -17 9 -15 14 -39 5 -62 -24z"/>
<path d="M1400 8293 c0 -6 -8 -14 -17 -16 -10 -3 2 -5 27 -5 25 0 39 2 33 5
-7 2 -15 4 -19 3 -4 -1 -11 4 -15 12 -6 9 -9 9 -9 1z"/>
<path d="M6600 8103 c0 -16 -40 -111 -89 -213 -49 -102 -125 -261 -169 -355
-43 -93 -96 -206 -117 -250 -20 -44 -48 -103 -61 -132 l-23 -51 55 25 c44 20
64 24 98 19 l43 -7 26 58 c87 197 131 292 187 403 123 247 160 337 160 385 0
53 -19 95 -56 124 -37 29 -54 27 -54 -6z"/>
<path d="M1277 8033 c-4 -3 -7 -311 -7 -684 l0 -678 -42 -3 -43 -3 -3 -692 -2
-693 2724 0 c1669 0 2727 4 2731 9 3 5 -81 166 -186 358 l-192 347 83 161 c46
88 123 235 171 326 49 91 89 171 89 177 0 14 -35 15 -453 16 l-308 1 -41 77
-41 77 51 108 c27 60 112 239 187 398 250 529 325 689 325 697 0 5 -209 8
-465 8 l-465 0 0 -84 c0 -46 -3 -91 -6 -100 -6 -14 26 -16 310 -16 189 0 316
-4 316 -9 0 -9 -184 -400 -381 -811 l-89 -185 -52 -6 c-29 -4 -179 -7 -332 -7
l-279 -1 -42 -80 c-23 -44 -58 -100 -78 -125 -20 -24 -37 -47 -37 -50 0 -3
385 -6 856 -6 l855 0 -39 -72 c-77 -141 -231 -440 -243 -471 -12 -34 -22 -13
276 -549 l44 -78 -2590 0 -2589 0 0 585 0 585 559 0 c363 0 562 -4 566 -10 3
-5 2 -10 -4 -10 -13 0 -32 -67 -24 -86 6 -17 39 -13 35 4 -1 7 3 12 10 12 6 0
3 7 -8 15 -18 14 -18 15 6 12 18 -1 25 3 24 14 -1 10 5 16 15 14 9 -1 25 2 35
8 17 8 11 13 -40 32 -137 51 -184 91 -238 196 l-33 64 -361 3 -362 2 0 505 0
505 150 0 150 0 0 33 c0 18 7 59 15 90 8 32 15 62 15 67 0 11 -513 14 -523 3z"/>
<path d="M1621 7188 c-34 -12 -50 -38 -51 -79 0 -72 84 -106 135 -54 62 61 -3
163 -84 133z m67 -40 c7 -7 12 -24 12 -38 0 -33 -17 -50 -50 -50 -33 0 -50 17
-50 50 0 33 17 50 50 50 14 0 31 -5 38 -12z"/>
<path d="M5430 7187 c-54 -28 -61 -99 -13 -137 79 -62 177 40 111 114 -28 31
-65 40 -98 23z m79 -59 c14 -24 14 -28 -3 -47 -25 -27 -61 -27 -80 1 -20 28
-20 43 0 63 24 23 66 15 83 -17z"/>
<path d="M6235 6998 c-30 -16 -45 -39 -45 -69 0 -41 9 -58 42 -75 88 -46 163
66 87 130 -33 28 -53 31 -84 14z m67 -35 c22 -20 23 -51 1 -75 -20 -22 -46
-23 -67 -2 -21 20 -20 53 1 76 20 22 41 23 65 1z"/>
<path d="M6488 6935 l4 -45 51 0 51 0 -44 45 c-24 25 -49 45 -55 45 -6 0 -9
-18 -7 -45z"/>
<path d="M6046 6901 c-4 -7 -5 -15 -2 -18 9 -9 19 4 14 18 -4 11 -6 11 -12 0z"/>
<path d="M855 6855 c-37 -36 -34 -86 6 -119 35 -30 49 -32 88 -11 33 16 41 33
41 80 0 67 -87 99 -135 50z m86 -15 c26 -14 25 -62 -2 -86 -19 -17 -23 -17
-47 -3 -32 17 -40 59 -17 83 19 19 38 20 66 6z"/>
<path d="M2913 6731 c-61 -69 -125 -113 -205 -143 -32 -11 -61 -24 -63 -28 -4
-7 639 -2 661 5 10 3 7 45 -12 141 -3 19 -15 23 -86 33 -75 11 -188 34 -228
46 -10 3 -35 -17 -67 -54z"/>
<path d="M4107 6637 c-44 -96 -47 -115 -15 -93 14 10 44 16 80 16 58 0 70 8
44 29 -7 6 -25 38 -40 71 -15 33 -28 60 -29 60 -1 -1 -19 -38 -40 -83z"/>
<path d="M6808 6670 c2 -27 -2 -66 -9 -87 -11 -34 -107 -218 -251 -478 -57
-103 -57 -97 14 -222 40 -70 43 -73 50 -48 4 15 4 33 2 40 -3 7 10 42 29 77
30 56 63 116 186 343 81 150 95 188 94 246 0 31 -8 70 -16 86 -16 29 -80 93
-95 93 -4 0 -5 -22 -4 -50z m-218 -545 c0 -8 -4 -15 -10 -15 -5 0 -7 7 -4 15
4 8 8 15 10 15 2 0 4 -7 4 -15z"/>
<path d="M840 6586 c0 -24 88 -106 114 -106 12 0 6 17 -13 39 -23 27 -18 48
12 54 12 2 -1 5 -30 6 -28 0 -58 4 -67 7 -9 3 -16 3 -16 0z"/>
<path d="M3911 6366 c-9 -11 -9 -16 0 -22 7 -4 9 -3 5 4 -3 5 0 12 6 15 7 2
10 7 7 11 -3 4 -12 0 -18 -8z"/>
<path d="M3918 6293 c7 -3 16 -2 19 1 4 3 -2 6 -13 5 -11 0 -14 -3 -6 -6z"/>
<path d="M2405 6264 c-83 -43 -108 -112 -49 -135 l24 -9 0 -263 c0 -191 3
-266 12 -275 19 -19 163 -16 182 4 9 8 16 11 16 5 0 -5 10 -13 23 -17 31 -11
149 -4 165 9 9 7 16 7 24 -1 7 -7 46 -12 95 -12 79 0 84 1 95 25 10 22 13 24
28 10 26 -24 87 -45 127 -45 43 0 111 28 133 55 14 17 15 16 20 -11 l5 -29
227 -3 c214 -2 228 -1 237 17 10 18 12 18 57 -5 75 -38 136 -29 222 32 20 15
22 15 22 1 0 -22 48 -57 77 -57 34 0 76 24 107 60 l26 32 0 -29 c0 -44 16 -53
93 -53 60 0 70 3 74 20 5 19 6 18 35 -3 27 -20 40 -22 151 -20 106 1 124 4
137 21 15 18 16 18 59 -5 24 -13 61 -23 82 -23 39 0 122 30 133 49 5 7 22 1
48 -17 31 -20 53 -27 87 -26 25 0 148 2 274 3 179 2 230 6 241 17 12 12 20 11
56 -5 36 -16 59 -18 149 -14 58 3 112 10 119 16 9 7 12 56 12 182 0 214 7 204
-145 203 -113 -1 -133 -5 -172 -41 -13 -11 -23 -16 -23 -10 0 6 -15 20 -32 31
-30 19 -51 20 -273 21 -223 0 -241 -1 -272 -20 -18 -11 -37 -28 -42 -37 -9
-15 -13 -14 -38 10 -56 54 -132 63 -205 24 l-44 -23 0 128 c1 153 -1 156 -90
161 -90 4 -94 -2 -94 -133 l0 -109 -33 0 c-18 0 -49 -8 -68 -18 -34 -17 -37
-18 -57 -1 -19 15 -20 18 -7 29 9 7 15 29 15 52 0 83 -92 120 -144 57 -27 -32
-33 -67 -16 -99 9 -17 7 -18 -25 -13 -30 5 -39 1 -64 -26 -28 -30 -30 -30 -36
-11 -8 26 -40 33 -112 26 -32 -3 -67 -5 -78 -4 -88 6 -137 0 -165 -20 -37 -28
-40 -28 -40 3 0 23 4 25 45 25 54 0 85 25 85 69 0 42 -24 61 -76 61 l-44 0 0
45 c0 63 -24 85 -91 85 -88 0 -89 -1 -89 -150 l0 -130 -22 9 c-13 5 -77 8
-142 7 -122 -1 -124 -2 -142 -44 -1 -1 -23 9 -49 23 -76 40 -166 31 -227 -23
-17 -14 -18 -9 -18 91 0 124 -17 180 -61 202 -36 19 -100 19 -145 0 -32 -13
-38 -13 -60 2 -19 12 -40 15 -94 10 -42 -3 -70 -2 -70 4 0 17 -64 49 -100 49
-19 0 -48 -7 -65 -16z m112 -39 c12 -8 24 -28 28 -45 l6 -29 37 19 c48 26 112
26 144 0 25 -19 25 -19 64 0 21 11 53 20 70 20 90 0 94 -15 94 -325 l0 -255
-65 0 -65 0 -2 246 c-3 219 -5 248 -20 257 -13 9 -22 7 -37 -7 -20 -18 -21
-30 -21 -258 l0 -238 -60 0 -60 0 0 236 c0 241 -5 274 -39 274 -42 0 -46 -21
-46 -269 l0 -236 -62 -3 -63 -3 -2 278 -3 278 -23 3 c-30 4 -24 21 18 50 38
26 77 28 107 7z m1221 -102 l3 -62 57 -3 c45 -2 58 -7 60 -20 3 -16 -5 -18
-57 -18 l-61 0 0 -205 0 -205 -50 0 -50 0 0 289 0 289 48 -2 47 -1 3 -62z
m1002 -233 l0 -280 -50 0 c-27 0 -50 4 -50 9 0 6 -15 4 -34 -4 -88 -37 -166
33 -166 149 0 66 27 126 66 147 28 14 79 17 112 6 22 -8 22 -8 22 100 0 148 2
153 56 153 l44 0 0 -280z m-342 178 c7 -7 12 -21 12 -33 0 -12 -5 -26 -12 -33
-7 -7 -21 -12 -33 -12 -12 0 -26 5 -33 12 -7 7 -12 21 -12 33 0 12 5 26 12 33
7 7 21 12 33 12 12 0 26 -5 33 -12z m-110 -159 c30 -55 -16 -215 -79 -275 -27
-26 -79 -37 -95 -21 -6 6 -83 281 -84 298 0 8 90 23 96 17 2 -3 18 -54 35
-114 17 -60 33 -111 36 -114 10 -10 33 35 43 86 9 44 8 58 -4 83 -20 37 -20
36 0 56 20 20 35 15 52 -16z m-1072 2 c102 -47 125 -166 47 -252 -61 -67 -149
-76 -214 -22 -92 78 -73 231 36 279 42 18 83 17 131 -5z m213 5 c10 -12 17
-12 51 1 42 17 79 12 104 -13 13 -12 16 -41 16 -155 l0 -139 -45 0 -45 0 0
111 c0 117 -9 149 -40 149 -34 0 -41 -32 -34 -150 l7 -110 -51 0 -52 0 0 154
c0 139 2 155 18 159 34 9 60 7 71 -7z m538 -3 c19 -9 40 -27 46 -41 11 -23 7
-29 -56 -87 -37 -34 -67 -67 -67 -73 0 -6 11 -19 25 -28 23 -15 46 -15 105 -2
32 7 23 -18 -18 -46 -104 -74 -229 -12 -240 118 -5 67 22 123 77 154 44 26 81
27 128 5z m443 -143 l0 -160 -45 0 -45 0 0 160 0 160 45 0 45 0 0 -160z m563
144 c18 -9 39 -25 46 -37 12 -19 7 -26 -59 -91 l-72 -70 28 -24 c24 -21 33
-23 82 -17 71 9 67 -9 -10 -49 -47 -24 -63 -27 -99 -21 -86 15 -142 109 -118
197 28 106 115 154 202 112z m260 2 c15 -8 27 -11 27 -5 0 5 23 9 50 9 l50 0
0 -155 0 -155 -50 0 c-28 0 -50 5 -50 10 0 6 -14 3 -31 -6 -58 -30 -131 6
-158 79 -31 80 0 190 61 220 41 20 65 21 101 3z m263 5 c5 -6 25 -5 51 2 35 9
48 8 77 -6 43 -20 48 -42 44 -192 l-3 -110 -47 -3 -48 -3 0 114 c0 121 -10
152 -46 146 -17 -4 -20 -17 -28 -132 l-9 -127 -43 0 -44 0 0 153 c0 85 3 157
7 160 10 10 78 8 89 -2z m437 -1 l57 1 0 -155 0 -156 -50 0 c-27 0 -50 4 -50
9 0 5 -19 2 -43 -7 -39 -14 -45 -14 -81 3 -48 23 -75 78 -76 153 0 107 54 168
140 157 25 -3 71 -5 103 -5z m-1904 -177 c1 -13 -67 -39 -76 -29 -4 4 9 22 27
41 30 31 35 33 42 18 3 -10 7 -23 7 -30z m987 11 c2 -19 -5 -28 -23 -35 -38
-14 -40 -3 -8 31 16 17 29 30 29 30 1 0 2 -12 2 -26z"/>
<path d="M4565 5835 c-19 -18 -25 -35 -25 -65 0 -30 6 -47 25 -65 27 -28 43
-31 70 -12 15 12 17 23 12 78 -4 44 -11 67 -23 76 -25 18 -31 17 -59 -12z m35
-60 c0 -25 -4 -45 -10 -45 -11 0 -14 73 -3 83 11 12 13 8 13 -38z"/>
<path d="M3131 5841 c-63 -63 -9 -183 69 -151 55 23 66 95 21 141 -34 34 -63
37 -90 10z m76 -50 c8 -17 9 -30 2 -43 -23 -43 -69 -28 -69 21 0 53 44 67 67
22z"/>
<path d="M3872 5845 c-14 -31 -16 -75 -3 -75 14 0 72 71 68 83 -2 7 -15 13
-28 15 -19 2 -28 -4 -37 -23z"/>
<path d="M4890 5858 c-12 -13 -20 -35 -20 -57 l0 -35 40 39 c46 45 47 50 20
65 -15 8 -23 6 -40 -12z"/>
<path d="M5181 5834 c-30 -38 -28 -98 4 -129 48 -49 75 -26 75 65 0 38 -5 71
-12 78 -19 19 -45 14 -67 -14z m39 -59 c0 -25 -4 -45 -10 -45 -11 0 -14 73 -3
83 11 12 13 8 13 -38z"/>
<path d="M5811 5834 c-25 -32 -28 -90 -5 -122 12 -17 24 -22 47 -20 l32 3 3
68 c3 72 -7 97 -38 97 -10 0 -28 -12 -39 -26z m39 -64 c0 -22 -4 -40 -10 -40
-5 0 -10 18 -10 40 0 22 5 40 10 40 6 0 10 -18 10 -40z"/>
<path d="M1539 6247 c-54 -36 -58 -62 -58 -358 -1 -255 0 -267 20 -293 25 -31
79 -35 134 -9 34 16 37 16 80 -5 54 -26 106 -28 144 -6 25 15 30 15 58 0 25
-13 52 -14 147 -9 68 3 120 11 126 18 5 6 12 88 14 182 7 213 14 203 -140 202
-95 -1 -116 -4 -150 -23 -43 -24 -80 -81 -89 -138 -7 -38 -7 -38 -54 -38 -26
0 -52 -5 -57 -10 -12 -12 -24 135 -24 277 0 64 2 73 18 73 24 0 42 19 42 46 0
29 -79 99 -121 108 -47 9 -53 8 -90 -17z m88 -28 c30 -11 73 -47 73 -61 0 -4
-9 -8 -19 -8 -10 0 -22 -7 -25 -16 -11 -28 -7 -444 4 -444 6 0 27 9 47 20 52
28 98 26 128 -5 48 -47 26 -105 -40 -105 -31 0 -85 26 -85 41 0 14 -39 7 -103
-17 -84 -33 -82 -40 -80 282 l3 279 25 23 c30 25 34 26 72 11z m409 -299 c15
-6 31 -7 38 -2 6 5 28 7 49 5 l37 -5 0 -154 0 -154 -44 0 c-25 0 -48 4 -51 10
-4 6 -18 4 -37 -6 -60 -31 -120 0 -153 78 -33 81 -2 187 65 220 40 21 58 22
96 8z"/>
<path d="M1987 5842 c-12 -13 -17 -37 -17 -75 0 -46 4 -58 22 -71 48 -34 70
-14 75 66 4 51 1 68 -12 81 -22 22 -48 21 -68 -1z m43 -73 c0 -28 -4 -39 -12
-37 -24 8 -22 78 2 78 5 0 10 -18 10 -41z"/>
<path d="M6653 5783 c3 -12 0 -24 -5 -25 -12 -4 16 -61 112 -233 81 -144 94
-182 87 -246 -7 -58 -26 -96 -69 -139 -62 -63 -92 -70 -298 -70 l-185 0 36
-24 c44 -30 73 -91 66 -143 -10 -84 -52 -170 -96 -200 -29 -20 -47 -23 -128
-23 -52 0 -102 4 -112 9 -13 7 -24 2 -50 -24 -45 -47 -87 -58 -179 -51 -94 7
-81 7 -227 -2 -84 -6 -131 -5 -156 3 -24 8 -43 9 -54 2 -9 -5 -72 -7 -139 -6
-116 4 -125 6 -164 33 l-42 29 -20 -26 c-29 -37 -80 -50 -158 -43 -37 4 -80 6
-97 5 -16 -1 -55 -2 -85 -2 -30 1 -68 1 -85 1 -111 -2 -185 -1 -215 1 -19 2
-134 1 -255 -2 -184 -4 -225 -2 -252 11 -26 12 -38 13 -57 4 -14 -6 -74 -14
-133 -18 -92 -6 -110 -10 -125 -28 -10 -12 -17 -16 -18 -8 0 7 -12 17 -26 22
-22 9 -24 13 -14 25 10 12 10 15 -2 15 -9 0 -27 -17 -41 -37 -15 -21 -43 -51
-64 -68 -52 -41 -146 -47 -221 -15 -49 21 -82 54 -82 82 0 10 -16 12 -62 9
-35 -2 -55 -6 -45 -8 34 -8 16 -19 -30 -18 -37 1 -49 5 -51 18 -4 22 -22 22
-23 0 0 -17 -1 -17 -7 0 -4 9 -22 26 -40 37 -32 20 -32 19 -69 -2 -33 -20 -50
-22 -173 -22 -82 1 -144 6 -157 13 -15 7 -30 8 -47 1 -24 -9 -195 -15 -256 -9
-14 1 -65 0 -115 -4 -104 -7 -157 10 -195 61 -19 26 -26 29 -47 21 -13 -5 -63
-9 -110 -9 l-86 0 23 -25 c23 -25 50 -33 50 -16 0 5 -6 12 -12 14 -8 4 -7 6 3
6 23 1 32 -26 12 -37 -19 -11 -7 -36 13 -28 8 3 13 0 11 -6 -4 -22 64 -38 138
-32 38 3 76 9 85 14 11 6 26 -2 53 -29 21 -21 54 -43 75 -48 23 -7 182 -9 425
-7 360 3 391 4 425 22 37 19 37 19 77 -2 33 -17 62 -22 162 -24 115 -3 122 -5
127 -26 8 -34 57 -74 107 -87 85 -23 174 18 221 102 27 48 54 57 104 33 29
-14 59 -17 138 -15 56 1 119 2 141 2 22 0 238 0 480 -1 242 0 451 0 465 0 14
0 47 -3 73 -6 69 -9 132 3 166 32 l29 24 48 -28 49 -27 260 0 c143 1 285 2
315 5 30 2 75 0 100 -4 59 -10 115 5 168 46 43 33 43 33 142 29 115 -3 159 8
194 50 28 33 66 144 66 193 0 34 -52 126 -70 126 -6 0 -9 4 -6 9 3 4 83 9 178
10 160 1 176 3 218 24 85 44 139 145 125 236 -6 40 -53 142 -118 256 -12 22
-44 81 -71 130 -64 116 -129 216 -123 188z m-2038 -1193 c3 -6 -1 -7 -9 -4
-18 7 -21 14 -7 14 6 0 13 -4 16 -10z m-917 -7 c-10 -2 -26 -2 -35 0 -10 3 -2
5 17 5 19 0 27 -2 18 -5z m-339 -114 c-7 -4 -17 -5 -22 -2 -5 3 -3 9 4 14 7 4
17 5 22 2 5 -3 3 -9 -4 -14z"/>
<path d="M2945 5080 c-40 -16 -70 -59 -70 -102 0 -53 42 -91 116 -107 55 -12
99 -34 99 -51 0 -39 -89 -53 -157 -25 -20 8 -37 14 -38 13 -1 -2 -8 -14 -15
-27 -16 -32 2 -46 77 -61 90 -19 170 5 198 60 31 60 8 110 -62 135 -27 9 -67
24 -90 32 -34 12 -43 19 -43 38 0 37 63 53 124 33 l45 -15 11 30 c5 16 10 31
10 33 0 1 -14 7 -31 13 -37 13 -145 14 -174 1z"/>
<path d="M1120 5074 c0 -18 35 -67 62 -87 48 -35 62 -39 172 -43 94 -3 98 -3
93 16 -3 11 -2 20 3 20 4 0 10 7 13 14 4 11 1 13 -10 9 -12 -5 -15 -2 -11 8 8
20 -17 53 -33 43 -8 -4 -10 -3 -5 4 9 15 -109 16 -184 2 -30 -6 -56 -6 -59 -2
-7 10 -41 24 -41 16z"/>
<path d="M1510 5060 c0 -5 7 -7 15 -4 8 4 15 8 15 10 0 2 -7 4 -15 4 -8 0 -15
-4 -15 -10z"/>
<path d="M3880 5035 c0 -31 -3 -35 -25 -35 -21 0 -25 -5 -25 -29 0 -23 5 -30
23 -33 20 -3 22 -9 27 -92 7 -107 22 -126 101 -126 54 0 61 6 51 41 -5 18 -14
24 -37 24 l-30 0 -3 78 -3 77 33 0 c30 0 33 3 35 30 2 28 0 30 -32 30 -33 0
-35 2 -35 35 0 34 -1 35 -40 35 -39 0 -40 -1 -40 -35z"/>
<path d="M2202 5007 c-6 -7 -15 -25 -21 -39 -8 -21 -20 -29 -53 -35 -53 -11
-60 -34 -23 -73 21 -22 26 -36 23 -65 -4 -50 18 -65 64 -43 31 14 35 14 69 -5
21 -12 43 -18 54 -14 15 6 17 15 11 57 -6 45 -4 51 18 65 52 34 43 71 -20 81
-25 3 -44 12 -44 19 0 18 -39 65 -55 65 -7 0 -17 -6 -23 -13z m44 -59 c8 -27
15 -34 39 -36 57 -6 60 -10 30 -42 -24 -25 -27 -34 -21 -70 l7 -42 -37 22
c-35 22 -37 22 -71 6 l-36 -17 7 38 c5 34 3 41 -26 64 l-32 27 43 7 c36 6 45
12 57 41 18 43 29 43 40 2z"/>
<path d="M5537 5007 c-9 -7 -21 -24 -26 -39 -8 -21 -19 -28 -53 -35 -53 -11
-60 -34 -23 -73 23 -24 26 -34 21 -63 -5 -25 -2 -39 9 -51 21 -20 24 -20 59 3
28 19 29 19 67 -1 57 -30 73 -19 65 42 -6 43 -4 50 13 60 26 13 43 44 35 64
-3 9 -25 18 -51 22 -38 6 -47 11 -55 35 -13 37 -39 53 -61 36z m37 -61 c12
-29 21 -35 56 -41 l42 -7 -27 -28 c-24 -25 -26 -33 -20 -71 l7 -42 -37 23
c-37 23 -39 23 -67 7 -42 -24 -48 -21 -36 20 9 35 8 38 -23 63 l-32 27 42 7
c36 5 44 11 57 41 8 19 16 35 19 35 3 0 11 -15 19 -34z"/>
<path d="M3200 4997 c0 -3 17 -43 38 -89 21 -45 49 -109 61 -141 23 -56 23
-58 5 -78 -13 -15 -25 -18 -46 -14 -23 6 -30 2 -39 -19 -15 -33 -10 -38 49
-44 41 -3 52 0 79 22 18 15 41 52 56 88 14 35 46 111 71 171 l45 107 -39 0
-38 0 -38 -95 c-20 -52 -40 -93 -42 -90 -3 3 -22 45 -42 93 l-36 87 -42 3
c-23 2 -42 1 -42 -1z"/>
<path d="M3594 4981 c-35 -21 -49 -58 -35 -93 13 -35 32 -47 91 -58 60 -11 79
-28 53 -47 -21 -16 -48 -16 -95 1 -35 12 -37 12 -48 -12 -16 -36 -1 -45 75
-50 108 -7 155 18 155 81 0 45 -22 63 -95 79 -49 11 -60 17 -60 33 0 18 6 20
67 19 63 -2 67 -1 73 23 3 14 3 28 0 32 -4 3 -39 7 -78 9 -58 2 -78 -1 -103
-17z"/>
<path d="M4152 4980 c-85 -52 -81 -199 7 -245 38 -19 123 -19 161 0 35 18 37
26 12 48 -15 14 -23 15 -48 5 -35 -13 -75 -5 -100 20 -21 21 -23 20 106 24
l85 3 -2 38 c-3 47 -27 89 -63 111 -39 23 -117 21 -158 -4z m130 -57 c35 -32
23 -43 -47 -43 -69 0 -79 8 -48 42 20 22 70 23 95 1z"/>
<path d="M4460 4860 l0 -140 35 0 35 0 0 69 c0 71 12 120 33 133 23 15 66 8
77 -11 5 -11 10 -58 10 -105 l0 -86 40 0 40 0 0 84 c0 97 16 129 65 129 44 0
55 -25 55 -125 l0 -88 40 0 40 0 0 94 c0 104 -7 134 -41 165 -30 27 -93 28
-137 1 l-33 -20 -26 20 c-31 24 -100 27 -129 5 -25 -19 -34 -19 -34 0 0 10
-11 15 -35 15 l-35 0 0 -140z"/>
<path d="M1648 4965 c-7 -16 -19 -25 -35 -25 -31 0 -40 -26 -17 -51 11 -13 17
-32 16 -50 -4 -31 13 -38 48 -19 13 7 27 6 45 -2 31 -14 46 0 37 35 -3 12 1
25 12 33 23 17 17 48 -11 52 -12 2 -29 14 -37 28 -21 31 -43 31 -58 -1z m80
-55 c16 -1 16 -2 0 -14 -10 -7 -18 -23 -18 -36 0 -18 -3 -20 -14 -11 -11 9
-20 10 -35 1 -18 -9 -21 -8 -21 13 0 12 -5 28 -11 34 -7 7 -3 12 15 17 15 4
26 13 26 23 0 14 3 13 20 -5 12 -12 28 -22 38 -22z"/>
<path d="M6150 4965 c-7 -18 -17 -25 -35 -25 -33 0 -42 -25 -19 -51 10 -11 18
-32 19 -47 0 -21 4 -26 20 -23 35 6 70 5 88 -3 14 -7 17 -3 17 25 0 18 7 40
16 50 21 24 11 49 -19 49 -16 0 -28 9 -35 25 -6 14 -19 25 -27 25 -9 0 -20
-11 -25 -25z m68 -55 c12 0 13 -3 4 -12 -7 -7 -12 -19 -12 -28 0 -12 -10 -16
-35 -16 -25 0 -35 4 -35 16 0 9 -5 21 -12 28 -9 9 -8 12 5 12 9 0 22 9 29 20
l13 21 14 -21 c7 -11 21 -20 29 -20z"/>
</g>
</svg>
